<svg width="32" height="32" viewBox="0 0 32 32" fill="none" xmlns="http://www.w3.org/2000/svg">
<path d="M27.0797 9.84051C28.0529 9.84051 29.0042 9.55194 29.8133 9.0113C30.6224 8.47065 31.2531 7.70221 31.6255 6.80315C31.9979 5.9041 32.0953 4.9148 31.9055 3.96036C31.7156 3.00593 31.247 2.12922 30.5589 1.44111C29.8708 0.753001 28.9941 0.284393 28.0396 0.0945435C27.0852 -0.0953056 26.0959 0.00213188 25.1968 0.374534C24.2978 0.746937 23.5293 1.37758 22.9887 2.18671C22.4481 2.99584 22.1595 3.94712 22.1595 4.92026C22.1595 5.5664 22.2867 6.20623 22.5339 6.8032C22.7812 7.40017 23.1436 7.94259 23.6005 8.39949C24.0574 8.85639 24.5998 9.21881 25.1968 9.46606C25.7938 9.71331 26.4336 9.84055 27.0797 9.84051ZM11.993 32.0001C9.621 32.0001 7.30225 31.2967 5.32999 29.9789C3.35773 28.6611 1.82054 26.788 0.912805 24.5965C0.00507301 22.4051 -0.23243 19.9936 0.23033 17.6672C0.693089 15.3408 1.83533 13.2038 3.5126 11.5265C5.18987 9.84926 7.32684 8.70702 9.65329 8.24427C11.9797 7.78152 14.3911 8.01902 16.5826 8.92676C18.7741 9.8345 20.6471 11.3717 21.9649 13.344C23.2828 15.3162 23.9861 17.635 23.9861 20.007C23.9862 21.582 23.676 23.1415 23.0733 24.5966C22.4706 26.0517 21.5872 27.3738 20.4735 28.4875C19.3598 29.6012 18.0377 30.4846 16.5826 31.0873C15.1275 31.6899 13.568 32.0001 11.993 32.0001Z" fill="#7D00FF"/>
</svg>
